<svg width="30" height="30" viewBox="0 0 30 30" fill="none" xmlns="http://www.w3.org/2000/svg">
<g clip-path="url(#clip0_323_234)">
<path d="M30 15C30 12.0333 29.1203 9.13319 27.4721 6.66645C25.8238 4.19972 23.4812 2.27713 20.7403 1.14181C17.9994 0.00649929 14.9834 -0.290551 12.0737 0.288228C9.16394 0.867006 6.49119 2.29562 4.39341 4.39341C2.29562 6.49119 0.867006 9.16394 0.288228 12.0737C-0.290551 14.9834 0.00649929 17.9994 1.14181 20.7403C2.27713 23.4812 4.19972 25.8238 6.66645 27.4721C9.13319 29.1203 12.0333 30 15 30C18.9769 29.9957 22.7897 28.414 25.6019 25.6019C28.414 22.7897 29.9957 18.9769 30 15ZM11.8313 22.1338L7.34876 17.6513C7.00047 17.303 6.72419 16.8896 6.5357 16.4346C6.3472 15.9796 6.25018 15.4919 6.25018 14.9994C6.25018 14.5069 6.3472 14.0192 6.5357 13.5642C6.72419 13.1092 7.00047 12.6957 7.34876 12.3475L11.8313 7.86626L11.8625 7.83626C11.9795 7.71711 12.1191 7.6226 12.2732 7.5583C12.4272 7.49401 12.5926 7.46123 12.7596 7.4619C12.9265 7.46257 13.0917 7.49668 13.2452 7.56221C13.3988 7.62774 13.5376 7.72337 13.6536 7.84345C13.7696 7.96354 13.8604 8.10564 13.9206 8.26137C13.9807 8.4171 14.0091 8.58331 14.004 8.75019C13.9989 8.91706 13.9604 9.08122 13.8908 9.23297C13.8212 9.38473 13.7219 9.521 13.5988 9.63376L9.48251 13.75L22.5 13.7413C22.8315 13.7413 23.1495 13.873 23.3839 14.1074C23.6183 14.3418 23.75 14.6597 23.75 14.9913C23.75 15.3228 23.6183 15.6407 23.3839 15.8751C23.1495 16.1096 22.8315 16.2413 22.5 16.2413L9.48376 16.25L13.5988 20.3663C13.7181 20.4816 13.8134 20.6195 13.8789 20.772C13.9444 20.9245 13.9789 21.0885 13.9803 21.2545C13.9818 21.4205 13.9501 21.5851 13.8873 21.7387C13.8244 21.8923 13.7316 22.0319 13.6143 22.1493C13.4969 22.2666 13.3573 22.3594 13.2037 22.4223C13.0501 22.4851 12.8855 22.5168 12.7195 22.5153C12.5535 22.5139 12.3895 22.4794 12.237 22.4139C12.0845 22.3484 11.9466 22.2531 11.8313 22.1338Z" fill="#878787"/>
</g>
<defs>
<clipPath id="clip0_323_234">
<rect width="30" height="30" fill="white"/>
</clipPath>
</defs>
</svg>
