<svg width="42" height="42" viewBox="0 0 42 42" fill="none" xmlns="http://www.w3.org/2000/svg">
<path fill-rule="evenodd" clip-rule="evenodd" d="M21.5963 2.18504C21.2159 2.02019 20.7841 2.02019 20.4037 2.18504L0.903657 10.6339C0.355056 10.8716 0 11.4124 0 12.0103C0 12.6081 0.355056 13.1489 0.903657 13.3866L3.58146 14.5469V31.32C2.27844 31.8981 1.36958 33.2031 1.36958 34.7205C1.36958 36.774 3.03429 38.4387 5.08782 38.4387C7.14135 38.4387 8.80605 36.774 8.80605 34.7205C8.80605 33.2016 7.89546 31.8954 6.59043 31.3182V15.8506L20.4037 21.8355C20.7841 22.0003 21.2159 22.0003 21.5963 21.8355L41.0964 13.3866C41.6448 13.1489 42 12.6081 42 12.0103C42 11.4124 41.6448 10.8716 41.0964 10.6339L21.5963 2.18504ZM8.86707 28.0603L8.85204 20.9179L18.9114 25.2764C20.2431 25.8533 21.7542 25.8533 23.0858 25.2764L33.147 20.9171L33.1485 28.0568C33.1485 28.3846 33.0411 28.7035 32.8428 28.9645L31.6485 28.0571C32.8428 28.9645 32.8434 28.9639 32.8428 28.9645L32.8407 28.9673L32.8383 28.9705L32.8326 28.978L32.8173 28.9975L32.7714 29.0545C32.7342 29.1 32.6835 29.1605 32.6187 29.2337C32.4894 29.3799 32.3043 29.5775 32.0616 29.8089C31.5762 30.2712 30.8571 30.8712 29.8881 31.4658C27.9404 32.661 25.0095 33.8178 20.9992 33.8178C16.9888 33.8178 14.0615 32.661 12.1174 31.4649C11.1502 30.87 10.4331 30.2697 9.94917 29.8069C9.70707 29.5753 9.52263 29.3776 9.39378 29.2311C9.32931 29.1578 9.27864 29.0973 9.2415 29.0517L9.1959 28.9946L9.18063 28.975L9.17484 28.9674L9.17244 28.9642C9.17193 28.9636 9.17031 28.9615 10.367 28.0572L9.17031 28.9615C8.9742 28.7019 8.86776 28.3856 8.86707 28.0603Z" fill="#FFAA34"/>
</svg>
