<svg width="100" height="100" viewBox="0 0 100 100" fill="none" xmlns="http://www.w3.org/2000/svg">
<g clip-path="url(#clip0_162_211)">
<path d="M49.9443 99.3385C77.2242 99.3385 99.3389 77.2238 99.3389 49.944C99.3389 22.6641 77.2242 0.549438 49.9443 0.549438C22.6645 0.549438 0.549805 22.6641 0.549805 49.944C0.549805 77.2238 22.6645 99.3385 49.9443 99.3385Z" fill="#00C500"/>
<path d="M42.7858 71.3483C42.7748 71.3483 42.7638 71.3483 42.7539 71.3483C41.327 71.3384 39.9736 70.7127 39.0428 69.6326L24.2485 52.451C22.4682 50.3841 22.7009 47.2646 24.7688 45.4842C26.8368 43.7049 29.9553 43.9376 31.7357 46.0045L42.8352 58.8954L68.1976 30.2081C70.0033 28.1643 73.125 27.9722 75.1699 29.7789C77.2138 31.5857 77.4058 34.7074 75.5991 36.7512L46.4882 69.6809C45.5486 70.7413 44.2006 71.3483 42.7858 71.3483Z" fill="white"/>
</g>
<defs>
<clipPath id="clip0_162_211">
<rect width="100" height="100" fill="white"/>
</clipPath>
</defs>
</svg>
