<svg width="36" height="36" viewBox="0 0 36 36" fill="none" xmlns="http://www.w3.org/2000/svg">
<g clip-path="url(#clip0_604_410)">
<path d="M14.9995 3C14.9995 1.3425 16.342 0 17.9995 0C19.657 0 20.9995 1.3425 20.9995 3C20.9995 4.6575 19.657 6 17.9995 6C16.342 6 14.9995 4.6575 14.9995 3ZM20.9995 25.5C20.9995 23.8425 19.657 22.5 17.9995 22.5C16.342 22.5 14.9995 23.8425 14.9995 25.5C14.9995 27.1575 16.342 28.5 17.9995 28.5C19.657 28.5 20.9995 27.1575 20.9995 25.5ZM30.7495 12C29.092 12 27.7495 13.3425 27.7495 15C27.7495 16.6575 29.092 18 30.7495 18C32.407 18 33.7495 16.6575 33.7495 15C33.7495 13.3425 32.407 12 30.7495 12ZM8.24954 15C8.24954 13.3425 6.90704 12 5.24954 12C3.59204 12 2.24954 13.3425 2.24954 15C2.24954 16.6575 3.59204 18 5.24954 18C6.90704 18 8.24954 16.6575 8.24954 15ZM5.24954 22.5C6.31454 22.5 7.24304 23.256 7.45454 24.2985C7.59854 25.0095 8.22404 25.5 8.92304 25.5C9.02204 25.5 9.12254 25.4895 9.22304 25.4685C10.0345 25.305 10.5595 24.5115 10.3945 23.7C9.89954 21.2655 7.73654 19.4985 5.24954 19.4985C2.76254 19.4985 0.59954 21.267 0.10454 23.7015C-0.0604602 24.513 0.46454 25.305 1.27604 25.47C2.08904 25.632 2.87954 25.1115 3.04454 24.3C3.25604 23.2575 4.18304 22.5015 5.24954 22.5015V22.5ZM17.9995 7.5C15.514 7.5 13.3495 9.267 12.8545 11.7015C12.6895 12.513 13.2145 13.305 14.026 13.47C14.839 13.6335 15.6295 13.1115 15.7945 12.3C16.006 11.2575 16.933 10.5015 17.9995 10.5015C19.066 10.5015 19.993 11.2575 20.2045 12.3C20.3485 13.011 20.974 13.5015 21.673 13.5015C21.772 13.5015 21.8725 13.491 21.973 13.47C22.7845 13.3065 23.3095 12.513 23.1445 11.7015C22.6495 9.267 20.4865 7.5 17.9995 7.5ZM17.9995 30C15.514 30 13.3495 31.767 12.8545 34.2015C12.6895 35.013 13.2145 35.805 14.026 35.97C14.839 36.138 15.6295 35.61 15.7945 34.8C16.006 33.7575 16.933 33.0015 17.9995 33.0015C19.066 33.0015 19.993 33.7575 20.2045 34.8C20.3485 35.511 20.974 36.0015 21.673 36.0015C21.772 36.0015 21.8725 35.991 21.973 35.97C22.7845 35.8065 23.3095 35.013 23.1445 34.2015C22.6495 31.767 20.4865 30 17.9995 30ZM35.8945 22.9515C35.3995 20.517 33.2365 18.75 30.7495 18.75C28.2625 18.75 26.0995 20.517 25.6045 22.9515C25.4395 23.763 25.9645 24.555 26.776 24.72C27.589 24.882 28.3795 24.3615 28.5445 23.55C28.756 22.5075 29.683 21.7515 30.7495 21.7515C31.816 21.7515 32.743 22.5075 32.9545 23.55C33.0985 24.261 33.724 24.7515 34.423 24.7515C34.522 24.7515 34.6225 24.741 34.723 24.72C35.5345 24.5565 36.0595 23.763 35.8945 22.9515ZM10.4995 3H8.99954C5.69054 3 2.99954 5.691 2.99954 9C2.99954 9.8295 3.67154 10.5 4.49954 10.5C5.32754 10.5 5.99954 9.8295 5.99954 9C5.99954 7.3455 7.34504 6 8.99954 6H10.4995C11.3275 6 11.9995 5.3295 11.9995 4.5C11.9995 3.6705 11.3275 3 10.4995 3ZM26.9995 6C28.654 6 29.9995 7.3455 29.9995 9C29.9995 9.8295 30.6715 10.5 31.4995 10.5C32.3275 10.5 32.9995 9.8295 32.9995 9C32.9995 5.691 30.3085 3 26.9995 3H25.4995C24.6715 3 23.9995 3.6705 23.9995 4.5C23.9995 5.3295 24.6715 6 25.4995 6H26.9995ZM31.4995 25.5C30.6715 25.5 29.9995 26.1705 29.9995 27C29.9995 28.6545 28.654 30 26.9995 30C26.1715 30 25.4995 30.6705 25.4995 31.5C25.4995 32.3295 26.1715 33 26.9995 33C30.3085 33 32.9995 30.309 32.9995 27C32.9995 26.1705 32.3275 25.5 31.4995 25.5ZM8.99954 30C7.34504 30 5.99954 28.6545 5.99954 27C5.99954 26.1705 5.32754 25.5 4.49954 25.5C3.67154 25.5 2.99954 26.1705 2.99954 27C2.99954 30.309 5.69054 33 8.99954 33C9.82754 33 10.4995 32.3295 10.4995 31.5C10.4995 30.6705 9.82754 30 8.99954 30Z" fill="#FFAA34"/>
</g>
<defs>
<clipPath id="clip0_604_410">
<rect width="36" height="36" fill="white"/>
</clipPath>
</defs>
</svg>
