<svg width="100" height="100" viewBox="0 0 100 100" fill="none" xmlns="http://www.w3.org/2000/svg">
<g clip-path="url(#clip0_171_217)">
<path d="M49.9443 99.3385C22.7082 99.3385 0.549805 77.1801 0.549805 49.944C0.549805 22.7078 22.7082 0.549438 49.9443 0.549438C77.1805 0.549438 99.3389 22.7078 99.3389 49.944C99.3389 77.1801 77.1805 99.3385 49.9443 99.3385Z" fill="#EC0000"/>
<path d="M32.2743 73.1023C30.8693 73.1023 29.4654 72.5667 28.3929 71.4943C26.2492 69.3517 26.2492 65.8765 28.3929 63.7339L63.7331 28.3937C65.8746 26.2511 69.352 26.2511 71.4935 28.3937C73.6372 30.5374 73.6372 34.0126 71.4935 36.1552L36.1556 71.4943C35.0832 72.5656 33.6793 73.1023 32.2743 73.1023Z" fill="white"/>
<path d="M67.6143 73.1023C66.2104 73.1023 64.8043 72.5667 63.7341 71.4943L28.3939 36.1552C26.2502 34.0115 26.2502 30.5363 28.3939 28.3937C30.5376 26.2511 34.0117 26.2511 36.1555 28.3937L71.4945 63.7339C73.6382 65.8765 73.6382 69.3517 71.4945 71.4943C70.4232 72.5656 69.0182 73.1023 67.6143 73.1023Z" fill="white"/>
</g>
<defs>
<clipPath id="clip0_171_217">
<rect width="100" height="100" fill="white"/>
</clipPath>
</defs>
</svg>
