<svg width="32" height="32" viewBox="0 0 32 32" fill="none" xmlns="http://www.w3.org/2000/svg">
<path d="M18.6673 2.66667H8.00065C7.29341 2.66667 6.61513 2.94762 6.11503 3.44772C5.61494 3.94782 5.33398 4.62609 5.33398 5.33334V26.6667C5.33398 27.3739 5.61494 28.0522 6.11503 28.5523C6.61513 29.0524 7.29341 29.3333 8.00065 29.3333H24.0007C24.7079 29.3333 25.3862 29.0524 25.8863 28.5523C26.3864 28.0522 26.6673 27.3739 26.6673 26.6667V10.6667M18.6673 2.66667L26.6673 10.6667M18.6673 2.66667L18.6673 10.6667H26.6673M21.334 17.3333H10.6673M21.334 22.6667H10.6673M13.334 12H10.6673" stroke="white" stroke-width="3" stroke-linecap="round" stroke-linejoin="round"/>
</svg>
