<svg width="40" height="38" viewBox="0 0 40 38" fill="none" xmlns="http://www.w3.org/2000/svg">
<path d="M30.7455 28.902L30.2563 28.0298L30.7455 28.902ZM31.5647 27.5386L30.5647 27.5386L30.5647 27.5386L31.5647 27.5386ZM18.2758 33.8889L17.7589 34.7449L17.7589 34.7449L18.2758 33.8889ZM21.7589 33.9432L22.2481 34.8153L21.7589 33.9432ZM3.17333 12.8833L2.68066 12.013L3.17333 12.8833ZM3.17333 14.2434L2.68066 15.1136L3.17333 14.2434ZM20.8531 23.2865L21.3457 24.1568L21.3457 24.1568L20.8531 23.2865ZM19.1466 23.2865L19.6393 22.4163L19.6393 22.4163L19.1466 23.2865ZM36.8264 12.8833L37.319 12.013L36.8264 12.8833ZM36.8264 14.2434L36.3337 13.3732L36.3337 13.3732L36.8264 14.2434ZM10.0291 28.9089L10.5461 28.0529L10.5461 28.0529L10.0291 28.9089ZM20.8531 3.8401L20.3604 4.71031L20.3604 4.71031L20.8531 3.8401ZM19.1466 3.84009L19.6393 4.71031L19.6393 4.71031L19.1466 3.84009ZM37.9998 13.537C37.9998 12.9847 37.5521 12.537 36.9998 12.537C36.4476 12.537 35.9998 12.9847 35.9998 13.537H37.9998ZM35.9998 22.087C35.9998 22.6392 36.4476 23.087 36.9998 23.087C37.5521 23.087 37.9998 22.6392 37.9998 22.087H35.9998ZM20.3604 4.71031L36.3337 13.7535L37.319 12.013L21.3457 2.96988L20.3604 4.71031ZM36.3337 13.3732L20.3604 22.4163L21.3457 24.1568L37.319 15.1136L36.3337 13.3732ZM3.66599 13.7535L19.6393 4.71031L18.654 2.96988L2.68066 12.013L3.66599 13.7535ZM19.6393 22.4163L9.74922 16.8171L8.76389 18.5576L18.654 24.1568L19.6393 22.4163ZM9.74922 16.8171L3.666 13.3732L2.68066 15.1136L8.76389 18.5576L9.74922 16.8171ZM8.25656 17.6874V27.5727H10.2566V17.6874H8.25656ZM9.51221 29.765L17.7589 34.7449L18.7928 33.0329L10.5461 28.0529L9.51221 29.765ZM22.2481 34.8153L31.2348 29.7741L30.2563 28.0298L21.2696 33.0711L22.2481 34.8153ZM32.5647 27.5386L32.5648 17.6874L30.5648 17.6874L30.5647 27.5386L32.5647 27.5386ZM31.2348 29.7741C32.0426 29.3209 32.5647 28.4776 32.5647 27.5386L30.5647 27.5386C30.5647 27.7198 30.4639 27.9133 30.2563 28.0298L31.2348 29.7741ZM17.7589 34.7449C19.1254 35.5701 20.8554 35.5966 22.2481 34.8153L21.2696 33.0711C20.5035 33.5008 19.5421 33.4853 18.7928 33.0329L17.7589 34.7449ZM2.68066 12.013C1.46191 12.703 1.46192 14.4236 2.68066 15.1136L3.666 13.3732C3.7165 13.4018 3.7666 13.4757 3.7666 13.5633C3.7666 13.6509 3.7165 13.7249 3.66599 13.7535L2.68066 12.013ZM20.3604 22.4163C20.1404 22.5409 19.8593 22.5409 19.6393 22.4163L18.654 24.1568C19.4853 24.6274 20.5144 24.6274 21.3457 24.1568L20.3604 22.4163ZM36.3337 13.7535C36.2832 13.7249 36.2331 13.6509 36.2331 13.5633C36.2331 13.4757 36.2832 13.4018 36.3337 13.3732L37.319 15.1136C38.5378 14.4236 38.5378 12.703 37.319 12.013L36.3337 13.7535ZM8.25656 27.5727C8.25656 28.4804 8.74506 29.3017 9.51221 29.765L10.5461 28.0529C10.3509 27.9351 10.2566 27.7482 10.2566 27.5727H8.25656ZM21.3457 2.96988C20.5144 2.49923 19.4853 2.49923 18.654 2.96988L19.6393 4.71031C19.8593 4.58575 20.1404 4.58575 20.3604 4.71031L21.3457 2.96988ZM35.9998 13.537V22.087H37.9998V13.537H35.9998Z" fill="#FFAA34"/>
</svg>
