<svg width="30" height="30" viewBox="0 0 30 30" fill="none" xmlns="http://www.w3.org/2000/svg">
<g clip-path="url(#clip0_148_716)">
<path fill-rule="evenodd" clip-rule="evenodd" d="M3.68013 3.41515C3.44686 3.41515 3.25775 3.60426 3.25775 3.83755V22.0982H22.3684V17.0295C22.3684 16.1419 23.0878 15.4224 23.9756 15.4224C24.8631 15.4224 25.5827 16.1419 25.5827 17.0295V26.1623C25.5827 28.1708 23.9543 29.799 21.9458 29.799H3.68013C1.67165 29.799 0.043457 28.1708 0.043457 26.1623V3.83755C0.043457 1.82906 1.67165 0.200867 3.68013 0.200867H16.8721C17.7597 0.200867 18.4792 0.920408 18.4792 1.80801C18.4792 2.6956 17.7597 3.41515 16.8721 3.41515H3.68013ZM7.73964 6.44397C6.99997 6.44397 6.40036 7.04359 6.40036 7.78326C6.40036 8.52293 6.99997 9.12254 7.73964 9.12254H11.7987C12.5384 9.12254 13.138 8.52293 13.138 7.78326C13.138 7.04359 12.5384 6.44397 11.7987 6.44397H7.73964ZM6.40036 13.9285C6.40036 13.1889 6.99997 12.5893 7.73964 12.5893H9.76917C10.5088 12.5893 11.1085 13.1889 11.1085 13.9285C11.1085 14.6682 10.5088 15.2678 9.76917 15.2678H7.73964C6.99997 15.2678 6.40036 14.6682 6.40036 13.9285ZM19.9689 16.1436C20.1849 16.1047 20.3837 16.0004 20.5385 15.8449L29.3222 7.01955C29.523 6.82034 29.6824 6.58332 29.7911 6.3222C29.8999 6.06109 29.9561 5.78099 29.9561 5.49812C29.9561 5.21524 29.8999 4.93515 29.7911 4.67402C29.6824 4.41289 29.523 4.17589 29.3222 3.97669L27.0508 1.70526C26.8515 1.50441 26.6145 1.34499 26.3533 1.2362C26.0923 1.12741 25.8122 1.0714 25.5293 1.0714C25.2463 1.0714 24.9662 1.12741 24.7052 1.2362C24.444 1.34499 24.207 1.50441 24.0079 1.70526L15.1888 10.4826C15.0293 10.6413 14.9239 10.8461 14.8874 11.0681L14.1184 15.7438C13.9982 16.4741 14.637 17.1033 15.3654 16.9722L19.9689 16.1436Z" fill="#FFAA34"/>
</g>
<defs>
<clipPath id="clip0_148_716">
<rect width="30" height="30" fill="white"/>
</clipPath>
</defs>
</svg>
