<svg width="41" height="41" viewBox="0 0 41 41" fill="none" xmlns="http://www.w3.org/2000/svg">
<path d="M6.83334 34.1667C5.89375 34.1667 5.08941 33.8322 4.42032 33.1631C3.75122 32.494 3.41667 31.6896 3.41667 30.75V10.25C3.41667 9.31046 3.75122 8.50612 4.42032 7.83702C5.08941 7.16792 5.89375 6.83337 6.83334 6.83337H34.1667C35.1063 6.83337 35.9106 7.16792 36.5797 7.83702C37.2488 8.50612 37.5833 9.31046 37.5833 10.25V30.75C37.5833 31.6896 37.2488 32.494 36.5797 33.1631C35.9106 33.8322 35.1063 34.1667 34.1667 34.1667H6.83334ZM20.5 22.2084L6.83334 13.6667V30.75H34.1667V13.6667L20.5 22.2084ZM20.5 18.7917L34.1667 10.25H6.83334L20.5 18.7917ZM6.83334 13.6667V10.25V30.75V13.6667Z" fill="white"/>
</svg>
