<svg width="30" height="30" viewBox="0 0 30 30" fill="none" xmlns="http://www.w3.org/2000/svg">
<g clip-path="url(#clip0_312_245)">
<path fill-rule="evenodd" clip-rule="evenodd" d="M1.07143 5.35714C1.07143 2.39848 3.46991 0 6.42857 0C9.38724 0 11.7857 2.39848 11.7857 5.35714C11.7857 8.31581 9.38724 10.7143 6.42857 10.7143C3.46991 10.7143 1.07143 8.31581 1.07143 5.35714ZM23.5714 0C20.6128 0 18.2143 2.39848 18.2143 5.35714C18.2143 8.31581 20.6128 10.7143 23.5714 10.7143C26.5301 10.7143 28.9286 8.31581 28.9286 5.35714C28.9286 2.39848 26.5301 0 23.5714 0ZM19.5299 15.7664C20.3517 14.2322 21.6381 12.8571 23.5714 12.8571C25.5047 12.8571 26.7911 14.2322 27.6131 15.7664C28.446 17.3212 28.9721 19.3273 29.3136 21.2402C29.6584 23.1709 29.8292 25.0909 29.9145 26.5211C29.9571 27.2381 29.9786 27.8364 29.9893 28.2568C29.9946 28.467 29.9972 28.6331 29.9987 28.7473L29.9998 28.8793L30 28.9146V28.9271C30 28.9275 30 28.9286 28.9286 28.9286L30 28.9271C30 29.5187 29.5202 30 28.9286 30H18.2143C17.6226 30 17.1429 29.5202 17.1429 28.9286H18.2143C17.1429 28.9286 17.1429 28.929 17.1429 28.9286V28.9243L17.1429 28.9146L17.143 28.8793L17.1443 28.7473C17.1456 28.6331 17.1483 28.467 17.1537 28.2568C17.1644 27.8364 17.1858 27.2381 17.2285 26.5211C17.3136 25.0909 17.4844 23.1709 17.8292 21.2402C18.1708 19.3273 18.6969 17.3212 19.5299 15.7664ZM0 13.9286C0 13.3368 0.479696 12.8571 1.07143 12.8571H11.7857C12.3774 12.8571 12.8571 13.3368 12.8571 13.9286H11.7857C12.8571 13.9286 12.8571 13.9283 12.8571 13.9286V13.9328L12.8571 13.9425L12.857 13.9778L12.8558 14.1098C12.8544 14.2242 12.8517 14.3902 12.8463 14.6004C12.8356 15.0208 12.8142 15.619 12.7715 16.336C12.6864 17.7663 12.5156 19.6862 12.1708 21.6169C11.8292 23.5299 11.3031 25.536 10.4701 27.0909C9.64826 28.6249 8.36194 30 6.42857 30C4.4952 30 3.20889 28.6249 2.38704 27.0909C1.55406 25.536 1.02792 23.5299 0.686327 21.6169C0.341565 19.6862 0.170735 17.7663 0.0855984 16.336C0.0429197 15.619 0.0215351 15.0208 0.0108116 14.6004C0.00544783 14.3902 0.00274549 14.2242 0.00138383 14.1098L0.000181241 13.9778L2.47146e-05 13.9425L0 13.9328V13.9286C0 13.9283 0 13.9286 1.07143 13.9286H0Z" fill="#FFAA34"/>
</g>
<defs>
<clipPath id="clip0_312_245">
<rect width="30" height="30" fill="white"/>
</clipPath>
</defs>
</svg>
