<svg width="42" height="42" viewBox="0 0 42 42" fill="none" xmlns="http://www.w3.org/2000/svg">
<g clip-path="url(#clip0_705_329)">
<path d="M28.0595 31.6767C31.2795 33.4127 33.8082 36.2792 34.9072 39.8177C35.0717 40.348 34.9755 40.9272 34.6447 41.3752C34.314 41.8232 33.7925 42.0875 33.236 42.0875H8.73775C8.18125 42.0875 7.658 41.8232 7.329 41.3752C7 40.9272 6.902 40.3497 7.0665 39.8177C8.169 36.2722 10.7047 33.4022 13.9335 31.6662C14.7612 31.2217 15.7902 31.4072 16.3922 32.13L19.803 36.2215C20.426 36.9687 21.574 36.9687 22.197 36.2215L25.599 32.1387C26.201 31.416 27.2317 31.2305 28.0595 31.6767ZM36.148 4.63749L24.836 0.645743C22.407 -0.213507 19.733 -0.215257 17.3057 0.635243L5.8555 4.64274C4.424 5.14324 3.5 6.44524 3.5 7.96074C3.5 9.47799 4.42575 10.78 5.85725 11.2787L17.2445 15.2512C18.4502 15.6712 19.719 15.883 20.986 15.883C22.253 15.883 23.52 15.6712 24.7257 15.2512L34.9877 11.6725V19.3357C34.9877 20.3017 35.7717 21.0857 36.7377 21.0857C37.7037 21.0857 38.4877 20.3017 38.4877 19.3357C38.4877 19.3357 38.4947 7.97299 38.4947 7.95724C38.4965 6.44349 37.576 5.13974 36.1497 4.63574L36.148 4.63749ZM31.486 16.6005L25.8772 18.557C22.7307 19.6542 19.2395 19.6542 16.0912 18.557L10.486 16.6005V17.5857C10.486 23.3765 15.1952 28.0857 20.986 28.0857C26.7767 28.0857 31.486 23.3765 31.486 17.5857V16.5987V16.6005Z" fill="#FFAA34"/>
</g>
<defs>
<clipPath id="clip0_705_329">
<rect width="42" height="42" fill="white"/>
</clipPath>
</defs>
</svg>
