<svg width="80" height="80" viewBox="0 0 80 80" fill="none" xmlns="http://www.w3.org/2000/svg">
<path fill-rule="evenodd" clip-rule="evenodd" d="M41.1359 4.16198C40.4112 3.84798 39.5888 3.84798 38.8641 4.16198L1.72125 20.255C0.676297 20.7078 0 21.7378 0 22.8767C0 24.0155 0.676297 25.0455 1.72125 25.4984L6.82183 27.7083V59.6571C4.33988 60.7583 2.60873 63.244 2.60873 66.1343C2.60873 70.0457 5.7796 73.2166 9.69109 73.2166C13.6026 73.2166 16.7734 70.0457 16.7734 66.1343C16.7734 63.2411 15.039 60.7531 12.5532 59.6537V30.1916L38.8641 41.5914C39.5888 41.9054 40.4112 41.9054 41.1359 41.5914L78.2789 25.4984C79.3234 25.0455 80 24.0155 80 22.8767C80 21.7378 79.3234 20.7078 78.2789 20.255L41.1359 4.16198ZM16.8897 53.4482L16.861 39.8437L36.0217 48.1455C38.5582 49.2445 41.4365 49.2445 43.973 48.1455L63.1371 39.8422L63.14 53.4415C63.14 54.066 62.9354 54.6733 62.5577 55.1705L60.2829 53.4422C62.5577 55.1705 62.5589 55.1693 62.5577 55.1705L62.5537 55.1758L62.5491 55.1818L62.5383 55.1961L62.5091 55.2334L62.4217 55.3419C62.3509 55.4286 62.2543 55.5438 62.1309 55.6831C61.8846 55.9618 61.532 56.3381 61.0697 56.7788C60.1451 57.6594 58.7754 58.8023 56.9297 59.9349C53.2199 62.2114 47.6371 64.4149 39.9985 64.4149C32.3595 64.4149 26.7839 62.2114 23.0808 59.9332C21.2385 58.8 19.8726 57.6566 18.9508 56.775C18.4897 56.3339 18.1383 55.9573 17.8929 55.6783C17.7701 55.5387 17.6736 55.4234 17.6029 55.3365L17.516 55.2279L17.4869 55.1904L17.4759 55.1761L17.4713 55.17C17.4703 55.1687 17.4673 55.1647 19.7466 53.4423L17.4673 55.1647C17.0937 54.6703 16.891 54.0678 16.8897 53.4482Z" fill="black"/>
</svg>
