<svg width="42" height="42" viewBox="0 0 42 42" fill="none" xmlns="http://www.w3.org/2000/svg">
<g clip-path="url(#clip0_308_180)">
<path fill-rule="evenodd" clip-rule="evenodd" d="M37.2046 26.929H21.7767C25.2792 26.6351 28.0303 23.6992 28.0303 20.1207C28.0303 16.3473 24.9713 13.2883 21.1979 13.2883H16.157C17.3069 11.7416 17.9873 9.82503 17.9873 7.74957C17.9873 4.51362 16.3333 1.664 13.8246 0H37.2046C39.4396 0 41.251 1.81166 41.251 4.04646V22.8825C41.251 25.1173 39.4396 26.929 37.2046 26.929ZM8.69469 13.2922C11.7558 13.2922 14.2373 10.8107 14.2373 7.74957C14.2373 4.68849 11.7558 2.20697 8.69469 2.20697C5.63361 2.20697 3.1521 4.68849 3.1521 7.74957C3.1521 10.8107 5.63361 13.2922 8.69469 13.2922ZM24.2803 20.1207C24.2803 18.4184 22.9002 17.0383 21.1979 17.0383H8.6958C4.30692 17.0383 0.749023 20.5962 0.749023 24.9851V28.6017C0.749023 30.1983 2.0433 31.4925 3.63987 31.4925H4.15479L5.00073 39.3222C5.16531 40.8456 6.45126 42 7.98336 42H9.4902C10.9873 42 12.2552 40.8963 12.4616 39.4137L14.7178 23.2031H21.1979C22.9002 23.2031 24.2803 21.8231 24.2803 20.1207Z" fill="#FFAA34"/>
</g>
<defs>
<clipPath id="clip0_308_180">
<rect width="42" height="42" fill="white"/>
</clipPath>
</defs>
</svg>
