<svg width="24" height="24" viewBox="0 0 24 24" fill="none" xmlns="http://www.w3.org/2000/svg">
<g clip-path="url(#clip0_276_152)">
<path d="M17.4613 0H4.23185C2.61772 0 1.30469 1.31303 1.30469 2.92691V21.0731C1.30469 22.687 2.61767 24 4.23185 24H19.7688C21.383 24 22.696 22.6869 22.696 21.073V5.35754L17.4613 0ZM19.7688 21.913H4.23185C3.76868 21.913 3.39165 21.5362 3.39165 21.0731V2.92691C3.39165 2.46375 3.76873 2.08696 4.23185 2.08696H16.4351V4.42335C16.4351 5.45614 17.2748 6.29633 18.3076 6.30678L20.609 6.3302V21.0731C20.609 21.5362 20.2319 21.913 19.7688 21.913Z" fill="black"/>
</g>
<defs>
<clipPath id="clip0_276_152">
<rect width="24" height="24" fill="white"/>
</clipPath>
</defs>
</svg>
